<svg xmlns="http://www.w3.org/2000/svg" width="167" height="35" viewBox="0 0 167 35">
  <g fill="#FFFFFF" fill-rule="evenodd" transform="translate(0 -2)">
    <path d="M0,4.51111111 L0,3.18888889 L5.26395208,3.18888889 L10.7126042,13.7666667 L16.2766939,3.18888889 L21.2405084,3.18888889 L21.2405084,4.51111111 L19.139545,4.51111111 L19.139545,18.3944444 L21.2405084,18.3944444 L21.2405084,19.7166667 L14.5451307,19.7166667 L14.5451307,18.3944444 L16.6460941,18.3944444 L16.6460941,7.86388889 C16.6614858,7.78518479 16.6730295,7.60023294 16.6807253,7.30902778 C16.6884212,7.01782262 16.6999648,6.7069461 16.7153566,6.37638889 C16.7307483,5.9828684 16.7461399,5.55787265 16.7615316,5.10138889 L16.553744,5.10138889 L15.5609811,7.62777778 L10.8280418,16.175 L9.41970372,16.175 L4.80220189,7.62777778 L3.78635149,4.86527778 L3.5554764,4.86527778 L3.5554764,6.32916667 C3.5554764,6.69120551 3.55932428,7.0335632 3.56702016,7.35625 C3.57471603,7.6789368 3.57856391,7.84814807 3.57856391,7.86388889 L3.57856391,18.3944444 L5.54100219,18.3944444 L5.54100219,19.7166667 L0,19.7166667 L0,18.3944444 L2.10096333,18.3944444 L2.10096333,4.51111111 L0,4.51111111 Z M30.9713916,19.7166667 L24.1836639,19.7166667 L24.1836639,18.3944444 L26.2846272,18.3944444 L26.2846272,4.51111111 L24.1836639,4.51111111 L24.1836639,3.18888889 L30.9713916,3.18888889 L30.9713916,4.51111111 L28.8704282,4.51111111 L28.8704282,18.3944444 L30.9713916,18.3944444 L30.9713916,19.7166667 Z M38.6013114,18.3944444 L40.5868372,18.3944444 L40.5868372,19.7166667 L33.9145471,19.7166667 L33.9145471,18.3944444 L36.0155104,18.3944444 L36.0155104,4.51111111 L33.9145471,4.51111111 L33.9145471,3.18888889 L36.2463855,3.18888889 C36.9390142,3.18888889 37.6931987,3.15740772 38.5089614,3.09444444 C39.3247241,3.03148117 40.1250831,3 40.9100623,3 C41.7566086,3 42.5531197,3.09050835 43.2996195,3.27152778 C44.0461194,3.4525472 44.6887153,3.73194256 45.2274265,4.10972222 C45.7661378,4.48750189 46.1932524,4.97152483 46.5087833,5.56180556 C46.8243142,6.15208628 46.9820772,6.85647739 46.9820772,7.675 C46.9820772,8.808339 46.6396159,9.77244973 45.9546831,10.5673611 C45.2697502,11.3622725 44.3731942,11.9249983 43.2649883,12.2555556 L47.8594026,18.3944444 L49.2908281,18.3944444 L49.2908281,19.7166667 L45.5506517,19.7166667 L40.9562374,12.5861111 L38.6013114,12.5861111 L38.6013114,18.3944444 Z M40.4252246,11.3583333 C41.6103894,11.3583333 42.5377284,11.0277811 43.2072695,10.3666667 C43.8768106,9.70555225 44.2115761,8.808339 44.2115761,7.675 C44.2115761,6.51017936 43.8575712,5.66018786 43.1495507,5.125 C42.4415302,4.58981214 41.5026476,4.32222222 40.3328746,4.32222222 C39.9326891,4.32222222 39.5979236,4.33796281 39.328568,4.36944444 C39.0592123,4.40092608 38.8167959,4.43240725 38.6013114,4.46388889 L38.6013114,11.3583333 L40.4252246,11.3583333 Z M56.1819477,19.7166667 L50.525508,19.7166667 L50.525508,18.3944444 L52.3263337,18.3944444 L58.3059985,3.18888889 L60.7532745,3.18888889 L66.2250142,18.3944444 L67.9565773,18.3944444 L67.9565773,19.7166667 L61.3535497,19.7166667 L61.3535497,18.3944444 L63.4083381,18.3944444 L61.90765,14.2388889 L55.7663725,14.2388889 L54.1964219,18.3944444 L56.1819477,18.3944444 L56.1819477,19.7166667 Z M56.2973853,12.9166667 L61.5151623,12.9166667 L59.6219866,7.4625 L59.0447988,4.95972222 L58.9524488,4.95972222 L58.282911,7.50972222 L56.2973853,12.9166667 Z M81.473812,3.18888889 L87.1533393,3.18888889 L87.1533393,4.51111111 L85.0523759,4.51111111 L85.0523759,20 L83.5516878,20 L74.1550716,7.0375 L73.1392212,5.21944444 L73.0468712,5.21944444 L73.2777463,7.06111111 L73.2777463,18.3944444 L75.3787096,18.3944444 L75.3787096,19.7166667 L69.6991824,19.7166667 L69.6991824,18.3944444 L71.8001457,18.3944444 L71.8001457,4.51111111 L69.6991824,4.51111111 L69.6991824,3.18888889 L74.3166842,3.18888889 L82.3973124,14.3097222 L83.5978629,16.3402778 L83.7133004,16.3402778 L83.5747754,14.3097222 L83.5747754,4.51111111 L81.473812,4.51111111 L81.473812,3.18888889 Z M89.6347446,19.7166667 L89.6347446,18.3944444 L91.7357079,18.3944444 L91.7357079,4.51111111 L89.6347446,4.51111111 L89.6347446,3.18888889 L92.4745082,3.18888889 C92.7669515,3.18888889 93.1094128,3.1810186 93.5019024,3.16527778 C93.894392,3.14953696 94.2984194,3.12986123 94.7139966,3.10625 C95.1295738,3.08263877 95.5259055,3.0590279 95.9030033,3.03541667 C96.2801012,3.01180544 96.5994752,3 96.8611349,3 C98.2925677,3 99.5546722,3.18495185 100.647486,3.55486111 C101.740301,3.92477037 102.656096,4.4599502 103.3949,5.16041667 C104.133704,5.86088313 104.691647,6.72268007 105.068744,7.74583333 C105.445842,8.7689866 105.634388,9.93378976 105.634388,11.2402778 C105.634388,12.4995433 105.457386,13.6564762 105.103376,14.7111111 C104.749365,15.765746 104.195271,16.682635 103.441075,17.4618056 C102.686879,18.2409761 101.721062,18.8469886 100.543593,19.2798611 C99.3661238,19.7127336 97.9616477,19.9291667 96.3301222,19.9291667 C96.0838542,19.9291667 95.7991111,19.9173612 95.4758844,19.89375 C95.1526577,19.8701388 94.8101964,19.8465279 94.4484902,19.8229167 C94.0867841,19.7993054 93.7212356,19.7756946 93.3518336,19.7520833 C92.9824316,19.7284721 92.6361224,19.7166667 92.3128957,19.7166667 L89.6347446,19.7166667 Z M96.5148223,4.32222222 C96.0838533,4.32222222 95.6682823,4.33009251 95.2680968,4.34583333 C94.8679113,4.36157415 94.5523852,4.39305532 94.3215089,4.44027778 L94.3215089,18.5125 C94.4138594,18.5282408 94.5677746,18.5400463 94.7832591,18.5479167 C94.9987436,18.5557871 95.2334643,18.5636574 95.4874282,18.5715278 C95.741392,18.5793982 95.9838084,18.5872685 96.2146847,18.5951389 C96.4455609,18.6030093 96.6071719,18.6069444 96.6995224,18.6069444 C97.8539036,18.6069444 98.8158735,18.406252 99.585461,18.0048611 C100.355049,17.6034702 100.974557,17.0682904 101.444006,16.3993056 C101.913454,15.7303207 102.248219,14.9511619 102.448312,14.0618056 C102.648405,13.1724493 102.74845,12.2319494 102.74845,11.2402778 C102.74845,10.4689776 102.652253,9.67407817 102.459856,8.85555556 C102.267459,8.03703294 101.932693,7.28935524 101.455549,6.6125 C100.978405,5.93564476 100.339657,5.38472435 99.539286,4.95972222 C98.738915,4.5347201 97.7307705,4.32222222 96.5148223,4.32222222 Z M112.22537,19.7166667 L106.568931,19.7166667 L106.568931,18.3944444 L108.369756,18.3944444 L114.349421,3.18888889 L116.796697,3.18888889 L122.268437,18.3944444 L124,18.3944444 L124,19.7166667 L117.396972,19.7166667 L117.396972,18.3944444 L119.451761,18.3944444 L117.951073,14.2388889 L111.809795,14.2388889 L110.239845,18.3944444 L112.22537,18.3944444 L112.22537,19.7166667 Z M112.340808,12.9166667 L117.558585,12.9166667 L115.665409,7.4625 L115.088221,4.95972222 L114.995871,4.95972222 L114.326334,7.50972222 L112.340808,12.9166667 Z"/>
    <path d="M0,26.5299846 L2.90758676,26.5299846 C4.16461036,26.5299846 5.14554396,26.8870629 5.850417,27.6012301 C6.55529005,28.3153974 6.90772128,29.3133372 6.90772128,30.5950794 C6.90772128,31.8768217 6.55626902,32.8757012 5.85335396,33.5917478 C5.1504389,34.3077945 4.16852632,34.6658124 2.90758676,34.6658124 L0,34.6658124 L0,26.5299846 Z M1.05730428,27.4433624 L1.05730428,33.7524346 L2.83709981,33.7524346 C3.78476246,33.7524346 4.51997317,33.4761688 5.04275401,32.9236289 C5.56553485,32.371089 5.82692135,31.5986723 5.82692135,30.6063557 C5.82692135,29.6102803 5.5635769,28.834105 5.0368801,28.2778063 C4.5101833,27.7215076 3.77693054,27.4433624 2.83709981,27.4433624 L1.05730428,27.4433624 Z M9.13001823,34.6658124 L9.13001823,28.5879036 L10.1403312,28.5879036 L10.1403312,34.6658124 L9.13001823,34.6658124 Z M9.63517472,27.3531522 C9.44329262,27.3531522 9.27784573,27.286435 9.1388291,27.1529985 C8.99981248,27.019562 8.9303052,26.8607561 8.9303052,26.6765761 C8.9303052,26.4886374 8.99981248,26.3288918 9.1388291,26.1973347 C9.27784573,26.0657776 9.44329262,26 9.63517472,26 C9.83097279,26 9.99739865,26.0657776 10.1344573,26.1973347 C10.2715159,26.3288918 10.3400442,26.4886374 10.3400442,26.6765761 C10.3400442,26.8607561 10.2715159,27.019562 10.1344573,27.1529985 C9.99739865,27.286435 9.83097279,27.3531522 9.63517472,27.3531522 Z M15.129241,33.7186058 C15.7166352,33.7186058 16.1767538,33.5203334 16.5096105,33.1237827 C16.8424672,32.7272319 17.0088931,32.1981923 17.0088931,31.5366479 C17.0088931,30.8751035 16.8414882,30.3460638 16.5066735,29.9495131 C16.1718588,29.5529623 15.7127193,29.3546899 15.129241,29.3546899 C14.5418468,29.3546899 14.0895601,29.5529623 13.7723672,29.9495131 C13.4551743,30.3460638 13.2965803,30.8751035 13.2965803,31.5366479 C13.2965803,32.1981923 13.4551743,32.7272319 13.7723672,33.1237827 C14.0895601,33.5203334 14.5418468,33.7186058 15.129241,33.7186058 Z M15.1762323,37 C14.4126199,37 13.7988021,36.8487116 13.3347607,36.5461302 C12.8707193,36.2435488 12.599543,35.8404262 12.5212238,35.3367504 L13.5902759,35.3367504 C13.6450994,35.5848295 13.8095673,35.7831019 14.0836846,35.9315736 C14.3578019,36.0800452 14.7219808,36.1542799 15.1762323,36.1542799 C15.7440467,36.1542799 16.1875227,36.0274231 16.5066735,35.7737058 C16.8258244,35.5199885 16.9853974,35.169488 16.9853974,34.7221937 L16.9853974,33.5269093 L16.8914148,33.5269093 C16.6917008,33.8614403 16.4195456,34.1198522 16.074941,34.3021527 C15.7303364,34.4844533 15.3407041,34.5756023 14.9060323,34.5756023 C14.0875964,34.5756023 13.4404935,34.2965174 12.9647042,33.7383393 C12.4889149,33.1801612 12.2510238,32.4462714 12.2510238,31.5366479 C12.2510238,30.6270243 12.4898939,29.8903155 12.9676412,29.3264992 C13.4453885,28.762683 14.0915124,28.4807791 14.9060323,28.4807791 C15.348536,28.4807791 15.7528529,28.5775661 16.1189953,28.771143 C16.4851377,28.9647199 16.7582719,29.2250112 16.9384061,29.5520246 L17.0323887,29.5520246 L17.0323887,28.5879036 L17.9957104,28.5879036 L17.9957104,34.772937 C17.9957104,35.4532752 17.7421557,35.9945307 17.2350387,36.3967196 C16.7279217,36.7989086 16.0416598,37 15.1762323,37 Z M20.4235943,34.6658124 L20.4235943,28.5879036 L21.4339073,28.5879036 L21.4339073,34.6658124 L20.4235943,34.6658124 Z M20.9287508,27.3531522 C20.7368687,27.3531522 20.5714218,27.286435 20.4324052,27.1529985 C20.2933885,27.019562 20.2238813,26.8607561 20.2238813,26.6765761 C20.2238813,26.4886374 20.2933885,26.3288918 20.4324052,26.1973347 C20.5714218,26.0657776 20.7368687,26 20.9287508,26 C21.1245489,26 21.2909747,26.0657776 21.4280334,26.1973347 C21.565092,26.3288918 21.6336203,26.4886374 21.6336203,26.6765761 C21.6336203,26.8607561 21.565092,27.019562 21.4280334,27.1529985 C21.2909747,27.286435 21.1245489,27.3531522 20.9287508,27.3531522 Z M24.2847129,27.0148642 L25.2950259,27.0148642 L25.2950259,28.5879036 L26.7047649,28.5879036 L26.7047649,29.399795 L25.2950259,29.399795 L25.2950259,32.8390569 C25.2950259,33.1961405 25.369428,33.4554921 25.5182345,33.6171194 C25.6670411,33.7787468 25.9059111,33.8595592 26.2348519,33.8595592 C26.324919,33.8595592 26.4022581,33.8576798 26.4668714,33.8539211 C26.5314848,33.8501623 26.6107818,33.8445242 26.7047649,33.8370067 L26.7047649,34.6545361 C26.6068659,34.67333 26.5089683,34.6874252 26.4110693,34.6968221 C26.3131702,34.7062191 26.2133147,34.7109175 26.1114997,34.7109175 C25.4614501,34.7109175 24.9944787,34.5850004 24.7105715,34.3331625 C24.4266644,34.0813246 24.2847129,33.6659862 24.2847129,33.0871348 L24.2847129,29.399795 L23.2626521,29.399795 L23.2626521,28.5879036 L24.2847129,28.5879036 L24.2847129,27.0148642 Z M30.6833617,33.9215787 C31.2041846,33.9215787 31.6359129,33.7759283 31.9785595,33.4846233 C32.3212061,33.1933182 32.4925268,32.8315415 32.4925268,32.3992824 L32.4925268,31.8411071 L30.7890922,31.9482317 C29.8649253,32.0083721 29.4028488,32.3391393 29.4028488,32.9405433 C29.4028488,33.2487629 29.5242418,33.4893209 29.7670314,33.6622245 C30.009821,33.8351281 30.3152614,33.9215787 30.6833617,33.9215787 Z M30.4953965,34.772937 C29.8805906,34.772937 29.3705443,34.6103724 28.9652423,34.2852383 C28.5599403,33.9601043 28.3572923,33.5193945 28.3572923,32.9630958 C28.3572923,31.8504985 29.1267672,31.2509828 30.66574,31.164531 L32.4925268,31.0574065 L32.4925268,30.5048693 C32.4925268,29.7305617 32.0147867,29.3434136 31.0592921,29.3434136 C30.6794439,29.3434136 30.3642137,29.4091912 30.1135922,29.5407483 C29.8629707,29.6723055 29.7024187,29.858362 29.6319314,30.0989236 L28.6098706,30.0989236 C28.6764419,29.6102829 28.9388074,29.2184365 29.3969749,28.9233726 C29.8551423,28.6283088 30.4209903,28.4807791 31.0945356,28.4807791 C31.86598,28.4807791 32.4602182,28.6602579 32.8772681,29.0192209 C33.294318,29.3781839 33.5028398,29.8733951 33.5028398,30.5048693 L33.5028398,34.6658124 L32.5395181,34.6658124 L32.5395181,33.7693491 L32.4455355,33.7693491 C32.2419055,34.0926037 31.9717083,34.3406791 31.6349356,34.5135828 C31.2981629,34.6864864 30.9183204,34.772937 30.4953965,34.772937 Z M35.9307237,34.6658124 L35.9307237,26.1747822 L36.9410367,26.1747822 L36.9410367,34.6658124 L35.9307237,34.6658124 Z M48.9394823,34.6658124 L48.8102562,34.313429 C48.724105,34.0785056 48.6252285,33.8078778 48.5136236,33.5015377 C48.4020187,33.1951975 48.3031422,32.9245698 48.216991,32.6896463 L48.0877649,32.3372629 L44.7161391,32.3372629 L43.8644217,34.6658124 L42.7542522,34.6658124 L45.8791738,26.5299846 L46.9247302,26.5299846 L50.0496518,34.6658124 L48.9394823,34.6658124 Z M46.3549607,27.8436699 L46.2198607,28.2101486 C46.1297936,28.454469 46.0191693,28.7570459 45.8879846,29.1178883 L45.4944325,30.20041 C45.3632478,30.5612524 45.2526235,30.8638293 45.1625564,31.1081497 L45.0274564,31.4746284 L47.7764476,31.4746284 L46.4489433,27.8436699 L46.3549607,27.8436699 Z M51.6434401,30.2511533 C51.6434401,29.7474774 51.8686045,29.3265009 52.31894,28.9882112 C52.7692756,28.6499214 53.3312076,28.4807791 54.0047529,28.4807791 C54.6704664,28.4807791 55.2177138,28.6273691 55.6465115,28.9205536 C56.0753093,29.213738 56.3229901,29.6102828 56.3895615,30.1101999 L55.3909963,30.1101999 C55.324425,29.8658795 55.1717048,29.6704262 54.9328311,29.5238339 C54.6939575,29.3772417 54.3826432,29.3039467 53.998879,29.3039467 C53.6229467,29.3039467 53.3057586,29.3875782 53.0473052,29.5548437 C52.7888517,29.7221092 52.6596269,29.9410545 52.6596269,30.2116863 C52.6596269,30.4184189 52.7496927,30.5903803 52.9298269,30.7275756 C53.1099611,30.8647709 53.3860323,30.9765928 53.7580486,31.0630446 L54.7331181,31.28857 C55.3283442,31.4276446 55.7718202,31.6277964 56.0635593,31.8890313 C56.3552984,32.1502661 56.5011658,32.4988873 56.5011658,32.9349052 C56.5011658,33.4799275 56.2583799,33.9225167 55.7728006,34.2626858 C55.2872214,34.6028549 54.6841724,34.772937 53.9636355,34.772937 C53.2587625,34.772937 52.6811669,34.6225882 52.2308313,34.3218862 C51.7804958,34.0211842 51.52792,33.6190013 51.4730966,33.1153255 L52.5127791,33.1153255 C52.5989303,33.3709222 52.7673141,33.5748327 53.0179356,33.727063 C53.2685571,33.8792934 53.595535,33.9554075 53.998879,33.9554075 C54.4257188,33.9554075 54.7761921,33.8670776 55.0503094,33.6904152 C55.3244267,33.5137527 55.4614833,33.2863503 55.4614833,33.0082009 C55.4614833,32.7977095 55.3782703,32.6219894 55.211842,32.4810354 C55.0454136,32.3400813 54.7938169,32.2301388 54.4570442,32.1512045 L53.3703704,31.8974885 C52.7790602,31.7584138 52.343416,31.5592017 52.0634248,31.2998462 C51.7834336,31.0404908 51.6434401,30.6909299 51.6434401,30.2511533 Z M58.3240367,30.2511533 C58.3240367,29.7474774 58.5492011,29.3265009 58.9995367,28.9882112 C59.4498722,28.6499214 60.0118042,28.4807791 60.6853496,28.4807791 C61.351063,28.4807791 61.8983104,28.6273691 62.3271082,28.9205536 C62.7559059,29.213738 63.0035868,29.6102828 63.0701581,30.1101999 L62.071593,30.1101999 C62.0050216,29.8658795 61.8523014,29.6704262 61.6134278,29.5238339 C61.3745542,29.3772417 61.0632399,29.3039467 60.6794757,29.3039467 C60.3035434,29.3039467 59.9863553,29.3875782 59.7279018,29.5548437 C59.4694484,29.7221092 59.3402236,29.9410545 59.3402236,30.2116863 C59.3402236,30.4184189 59.4302894,30.5903803 59.6104236,30.7275756 C59.7905578,30.8647709 60.0666289,30.9765928 60.4386453,31.0630446 L61.4137148,31.28857 C62.0089409,31.4276446 62.4524169,31.6277964 62.744156,31.8890313 C63.0358951,32.1502661 63.1817625,32.4988873 63.1817625,32.9349052 C63.1817625,33.4799275 62.9389765,33.9225167 62.4533973,34.2626858 C61.9678181,34.6028549 61.3647691,34.772937 60.6442322,34.772937 C59.9393592,34.772937 59.3617635,34.6225882 58.911428,34.3218862 C58.4610924,34.0211842 58.2085167,33.6190013 58.1536932,33.1153255 L59.1933758,33.1153255 C59.2795269,33.3709222 59.4479107,33.5748327 59.6985323,33.727063 C59.9491538,33.8792934 60.2761317,33.9554075 60.6794757,33.9554075 C61.1063155,33.9554075 61.4567888,33.8670776 61.730906,33.6904152 C62.0050233,33.5137527 62.1420799,33.2863503 62.1420799,33.0082009 C62.1420799,32.7977095 62.058867,32.6219894 61.8924386,32.4810354 C61.7260103,32.3400813 61.4744135,32.2301388 61.1376409,32.1512045 L60.050967,31.8974885 C59.4596569,31.7584138 59.0240127,31.5592017 58.7440215,31.2998462 C58.4640302,31.0404908 58.3240367,30.6909299 58.3240367,30.2511533 Z M67.7947419,29.3377755 C67.2895829,29.3377755 66.8744972,29.5012798 66.5494724,29.8282932 C66.2244476,30.1553066 66.0423581,30.5875592 66.0031985,31.1250641 L69.4923026,31.1250641 C69.4805547,30.5875592 69.3200027,30.1553066 69.0106418,29.8282932 C68.7012808,29.5012798 68.2959849,29.3377755 67.7947419,29.3377755 Z M69.4629331,33.0927729 L70.473246,33.0927729 C70.3205236,33.6152427 70.0111672,34.0258827 69.5451678,34.3247053 C69.0791684,34.6235279 68.4996149,34.772937 67.8064897,34.772937 C66.9293144,34.772937 66.2342416,34.4900934 65.7212507,33.9243977 C65.2082598,33.3587021 64.9517682,32.5947426 64.9517682,31.6324962 C64.9517682,30.6777673 65.2102177,29.9138078 65.7271246,29.3405946 C66.2440315,28.7673814 66.9371463,28.4807791 67.8064897,28.4807791 C68.6601693,28.4807791 69.3317466,28.7542259 69.8212417,29.3011276 C70.3107369,29.8480294 70.5554808,30.5931954 70.5554808,31.5366479 L70.5554808,31.9087647 L66.0031985,31.9087647 L66.0031985,31.9538698 C66.0306102,32.5552738 66.2078048,33.0326311 66.5347876,33.3859559 C66.8617704,33.7392808 67.2934986,33.9159405 67.8299854,33.9159405 C68.2372453,33.9159405 68.5779289,33.8454646 68.8520462,33.7045105 C69.1261634,33.5635564 69.3297904,33.359646 69.4629331,33.0927729 Z M73.0655995,27.0148642 L74.0759125,27.0148642 L74.0759125,28.5879036 L75.4856515,28.5879036 L75.4856515,29.399795 L74.0759125,29.399795 L74.0759125,32.8390569 C74.0759125,33.1961405 74.1503146,33.4554921 74.2991212,33.6171194 C74.4479277,33.7787468 74.6867977,33.8595592 75.0157385,33.8595592 C75.1058056,33.8595592 75.1831447,33.8576798 75.247758,33.8539211 C75.3123714,33.8501623 75.3916684,33.8445242 75.4856515,33.8370067 L75.4856515,34.6545361 C75.3877525,34.67333 75.2898549,34.6874252 75.1919559,34.6968221 C75.0940568,34.7062191 74.9942013,34.7109175 74.8923863,34.7109175 C74.2423367,34.7109175 73.7753654,34.5850004 73.4914582,34.3331625 C73.207551,34.0813246 73.0655995,33.6659862 73.0655995,33.0871348 L73.0655995,29.399795 L72.0435387,29.399795 L72.0435387,28.5879036 L73.0655995,28.5879036 L73.0655995,27.0148642 Z M81.5396975,26.5299846 L84.7409799,26.5299846 C85.543752,26.5299846 86.1967287,26.775241 86.6999298,27.2657611 C87.2031308,27.7562813 87.4547275,28.3886857 87.4547275,29.1629933 C87.4547275,29.9222659 87.1992149,30.5452735 86.6881819,31.0320349 C86.177149,31.5187962 85.5241722,31.7621732 84.7292321,31.7621732 L82.5970018,31.7621732 L82.5970018,34.6658124 L81.5396975,34.6658124 L81.5396975,26.5299846 Z M82.5970018,27.4320861 L82.5970018,30.8600718 L84.464906,30.8600718 C85.067964,30.8600718 85.5359144,30.7116024 85.8687711,30.4146591 C86.2016278,30.1177159 86.3680537,29.7004982 86.3680537,29.1629933 C86.3680537,28.6029359 86.2045648,28.1744419 85.877582,27.8774987 C85.5505992,27.5805555 85.0797119,27.4320861 84.464906,27.4320861 L82.5970018,27.4320861 Z M89.6124114,34.6658124 L89.6124114,26.1747822 L90.6227244,26.1747822 L90.6227244,34.6658124 L89.6124114,34.6658124 Z M95.0359908,33.9215787 C95.5568137,33.9215787 95.9885419,33.7759283 96.3311885,33.4846233 C96.6738352,33.1933182 96.8451559,32.8315415 96.8451559,32.3992824 L96.8451559,31.8411071 L95.1417212,31.9482317 C94.2175543,32.0083721 93.7554778,32.3391393 93.7554778,32.9405433 C93.7554778,33.2487629 93.8768708,33.4893209 94.1196604,33.6622245 C94.36245,33.8351281 94.6678904,33.9215787 95.0359908,33.9215787 Z M94.8480256,34.772937 C94.2332197,34.772937 93.7231733,34.6103724 93.3178713,34.2852383 C92.9125693,33.9601043 92.7099214,33.5193945 92.7099214,32.9630958 C92.7099214,31.8504985 93.4793962,31.2509828 95.0183691,31.164531 L96.8451559,31.0574065 L96.8451559,30.5048693 C96.8451559,29.7305617 96.3674158,29.3434136 95.4119212,29.3434136 C95.032073,29.3434136 94.7168428,29.4091912 94.4662213,29.5407483 C94.2155997,29.6723055 94.0550477,29.858362 93.9845604,30.0989236 L92.9624996,30.0989236 C93.029071,29.6102829 93.2914364,29.2184365 93.7496039,28.9233726 C94.2077714,28.6283088 94.7736193,28.4807791 95.4471647,28.4807791 C96.2186091,28.4807791 96.8128473,28.6602579 97.2298972,29.0192209 C97.6469471,29.3781839 97.8554689,29.8733951 97.8554689,30.5048693 L97.8554689,34.6658124 L96.8921472,34.6658124 L96.8921472,33.7693491 L96.7981646,33.7693491 C96.5945346,34.0926037 96.3243373,34.3406791 95.9875646,34.5135828 C95.650792,34.6864864 95.2709494,34.772937 94.8480256,34.772937 Z M100.647535,27.0148642 L101.657848,27.0148642 L101.657848,28.5879036 L103.067587,28.5879036 L103.067587,29.399795 L101.657848,29.399795 L101.657848,32.8390569 C101.657848,33.1961405 101.73225,33.4554921 101.881057,33.6171194 C102.029864,33.7787468 102.268734,33.8595592 102.597674,33.8595592 C102.687741,33.8595592 102.765081,33.8576798 102.829694,33.8539211 C102.894307,33.8501623 102.973604,33.8445242 103.067587,33.8370067 L103.067587,34.6545361 C102.969688,34.67333 102.871791,34.6874252 102.773892,34.6968221 C102.675993,34.7062191 102.576137,34.7109175 102.474322,34.7109175 C101.824273,34.7109175 101.357301,34.5850004 101.073394,34.3331625 C100.789487,34.0813246 100.647535,33.6659862 100.647535,33.0871348 L100.647535,29.399795 L99.6254745,29.399795 L99.6254745,28.5879036 L100.647535,28.5879036 L100.647535,27.0148642 Z M105.518967,34.6658124 L105.518967,29.399795 L104.467537,29.399795 L104.467537,28.5879036 L105.518967,28.5879036 L105.518967,27.9113275 C105.518967,27.3061648 105.674624,26.8560582 105.985943,26.5609944 C106.297262,26.2659305 106.754444,26.1184008 107.357502,26.1184008 C107.482812,26.1184008 107.601268,26.1230992 107.712873,26.1324962 C107.824478,26.1418931 107.933144,26.1559883 108.038875,26.1747822 L108.038875,26.964121 C107.97622,26.9528446 107.903776,26.9453272 107.821541,26.9415684 C107.739305,26.9378097 107.653156,26.9359303 107.563089,26.9359303 C107.198904,26.9359303 106.93556,27.0195618 106.773047,27.1868273 C106.610535,27.3540928 106.52928,27.6049872 106.52928,27.9395182 L106.52928,28.5879036 L107.980136,28.5879036 L107.980136,29.399795 L106.52928,29.399795 L106.52928,34.6658124 L105.518967,34.6658124 Z M112.287672,34.772937 C111.387001,34.772937 110.675286,34.4919727 110.152505,33.9300359 C109.629724,33.368099 109.368338,32.6003807 109.368338,31.626858 C109.368338,30.6495765 109.629724,29.8809186 110.152505,29.3208611 C110.675286,28.7608036 111.387001,28.4807791 112.287672,28.4807791 C113.188343,28.4807791 113.900059,28.7608036 114.42284,29.3208611 C114.94562,29.8809186 115.207007,30.6495765 115.207007,31.626858 C115.207007,32.6003807 114.94562,33.368099 114.42284,33.9300359 C113.900059,34.4919727 113.188343,34.772937 112.287672,34.772937 Z M112.287672,33.8990261 C112.886814,33.8990261 113.348891,33.6998141 113.673916,33.3013839 C113.99894,32.9029538 114.16145,32.344784 114.16145,31.626858 C114.16145,30.9051732 113.99894,30.3460638 113.673916,29.9495131 C113.348891,29.5529623 112.886814,29.3546899 112.287672,29.3546899 C111.68853,29.3546899 111.226454,29.5529623 110.901429,29.9495131 C110.576404,30.3460638 110.413894,30.9051732 110.413894,31.626858 C110.413894,32.344784 110.576404,32.9029538 110.901429,33.3013839 C111.226454,33.6998141 111.68853,33.8990261 112.287672,33.8990261 Z M117.294204,34.6658124 L117.294204,28.5879036 L118.257525,28.5879036 L118.257525,29.4900051 L118.351508,29.4900051 C118.445491,29.1930619 118.65695,28.9506246 118.985891,28.7626858 C119.314831,28.5747471 119.6888,28.4807791 120.107808,28.4807791 C120.190043,28.4807791 120.27913,28.4835981 120.375071,28.4892363 C120.471012,28.4948745 120.550309,28.5014522 120.612964,28.5089698 L120.612964,29.4787289 C120.573805,29.4674525 120.481781,29.4552367 120.336891,29.442081 C120.192,29.4289253 120.068649,29.4223475 119.966834,29.4223475 C119.485171,29.4223475 119.087707,29.5614201 118.77443,29.8395695 C118.461153,30.1177188 118.304517,30.4710383 118.304517,30.8995387 L118.304517,34.6658124 L117.294204,34.6658124 Z M122.377096,34.6658124 L122.377096,28.5879036 L123.340418,28.5879036 L123.340418,29.5463865 L123.434401,29.5463865 C123.579291,29.2080967 123.804455,28.9459261 124.1099,28.7598667 C124.415345,28.5738074 124.779524,28.4807791 125.202448,28.4807791 C125.633204,28.4807791 125.996404,28.5794455 126.292059,28.7767811 C126.587714,28.9741168 126.807984,29.2306494 126.952874,29.5463865 L127.046857,29.5463865 C127.219159,29.2231318 127.475651,28.9647199 127.816339,28.771143 C128.157028,28.5775661 128.54666,28.4807791 128.985248,28.4807791 C129.631382,28.4807791 130.128701,28.6518008 130.477222,28.9938493 C130.825742,29.3358978 131,29.8264106 131,30.4654024 L131,34.6658124 L129.989687,34.6658124 L129.989687,30.6909277 C129.989687,30.2436335 129.879063,29.9091075 129.657811,29.6873398 C129.436559,29.4655721 129.102728,29.3546899 128.656309,29.3546899 C128.217721,29.3546899 127.863332,29.4918831 127.593131,29.7662737 C127.322929,30.0406643 127.187831,30.3714315 127.187831,30.7585853 L127.187831,34.6658124 L126.177518,34.6658124 L126.177518,30.5386981 C126.177518,30.1778557 126.057104,29.8903137 125.816272,29.6760636 C125.57544,29.4618134 125.255315,29.3546899 124.855887,29.3546899 C124.440795,29.3546899 124.09228,29.5050386 123.810331,29.8057406 C123.528382,30.1064426 123.387409,30.4710383 123.387409,30.8995387 L123.387409,34.6658124 L122.377096,34.6658124 Z" opacity=".704"/>
    <path d="M134.6,11 L133.952,9.344 L130.028,9.344 L129.38,11 L128.06,11 L131.24,2.996 L132.74,2.996 L135.92,11 L134.6,11 Z M131.984,4.04 L130.376,8.276 L133.604,8.276 L131.984,4.04 Z M137.05,11 L137.05,2.996 L138.25,2.996 L138.25,9.944 L141.886,9.944 L141.886,11 L137.05,11 Z M143.376,11 L143.376,2.996 L146.748,2.996 C148.392,2.996 149.304,4.124 149.304,5.456 C149.304,6.788 148.38,7.916 146.748,7.916 L144.576,7.916 L144.576,11 L143.376,11 Z M148.068,5.456 C148.068,4.616 147.456,4.052 146.592,4.052 L144.576,4.052 L144.576,6.86 L146.592,6.86 C147.456,6.86 148.068,6.296 148.068,5.456 Z M156.338,11 L156.338,7.424 L151.91,7.424 L151.91,11 L150.71,11 L150.71,2.996 L151.91,2.996 L151.91,6.356 L156.338,6.356 L156.338,2.996 L157.538,2.996 L157.538,11 L156.338,11 Z M165.196,11 L164.548,9.344 L160.624,9.344 L159.976,11 L158.656,11 L161.836,2.996 L163.336,2.996 L166.516,11 L165.196,11 Z M162.58,4.04 L160.972,8.276 L164.2,8.276 L162.58,4.04 Z" opacity=".25"/>
  </g>
</svg>
